<?xml version="1.0" encoding="UTF-8" standalone="no"?><!DOCTYPE svg PUBLIC "-//W3C//DTD SVG 1.1//EN" "http://www.w3.org/Graphics/SVG/1.1/DTD/svg11.dtd"><svg width="100%" height="100%" viewBox="0 0 11325 1475" version="1.1" xmlns="http://www.w3.org/2000/svg" xmlns:xlink="http://www.w3.org/1999/xlink" xml:space="preserve" xmlns:serif="http://www.serif.com/" style="fill-rule:evenodd;clip-rule:evenodd;stroke-linejoin:round;stroke-miterlimit:2;"><g><g><path d="M295.281,0l-0.062,471.469c-0,0.687 -0.563,1.219 -1.25,1.219l-293.969,0.031l0,-389.5c1.219,-11.094 2.281,-18.25 3.188,-21.532c10.718,-38.531 37.593,-59.093 80.625,-61.687l211.468,0Z" style="fill:#ee3032;fill-rule:nonzero;"/><path d="M827.313,0l0.031,587.969c-0,1.187 0.594,1.781 1.781,1.781l528.688,0c0.531,0 0.812,0.281 0.812,0.813l0,294.781c0,0.343 -0.187,0.5 -0.531,0.5l-529.219,-0c-1.031,-0 -1.531,0.531 -1.531,1.562l-0.031,587.594l-295.969,0l-0.063,-587.406c0,-1 -0.812,-1.813 -1.812,-1.813l-529.469,0.031l0,-296.031l530,0.063c0.719,-0 1.281,-0.563 1.281,-1.25l0.032,-588.594l296,0Z" style="fill:#008349;fill-rule:nonzero;"/><path d="M1275.41,0c5.563,0.781 11.094,1.719 16.563,2.781c53,10.344 66.687,50.219 66.656,98.813c-0.063,122.906 -0.063,246.062 0,369.531c0,1.031 -0.5,1.531 -1.531,1.531l-293.188,0c-0.75,0 -1.375,-0.625 -1.375,-1.375l0.063,-471.281l212.812,0Z" style="fill:#ee3032;fill-rule:nonzero;"/><path d="M295.281,1475l-220.906,0c-45.813,-6.344 -70.594,-33.375 -74.375,-81.063l0,-389.999l293.688,-0.094c0.843,-0.031 1.531,0.687 1.531,1.531l0.062,469.625Z" style="fill:#ee3032;fill-rule:nonzero;"/><path d="M1285.94,1475l-223.344,0l-0.063,-469.563c0,-0.875 0.688,-1.562 1.563,-1.562l293.093,0c0.782,0 1.438,0.656 1.438,1.469c-0.063,118.843 -0.063,244.406 -0,376.687c0.031,50.438 -21.781,84.407 -72.688,92.969Z" style="fill:#ee3032;fill-rule:nonzero;"/></g><g><path d="M10027.8,0c80.781,142.156 161.5,284.344 242.188,426.531c27.437,48.281 49.937,93.875 69.718,143.5c1.313,3.282 1.813,3.157 1.5,-0.343c-4.562,-50.813 -7.906,-104.875 -7.562,-158.719c0.75,-121.156 1,-252.407 0.781,-393.719c-0,-3.156 1.594,-4.75 4.75,-4.75l120.25,0c1.219,0 1.844,0.625 1.844,1.844l-6.032,682.562c-0.031,0.281 -0.218,0.531 -0.5,0.594l-158.625,37.094c-1,0.25 -2.031,-0.219 -2.562,-1.125c-81.469,-143 -163.063,-286.188 -244.719,-429.563c-27.156,-47.719 -48.969,-91.625 -67.406,-140.25c-1.375,-3.625 -1.875,-3.5 -1.469,0.344c4.25,42.437 6.906,81.531 7.969,117.312c1.344,46.157 -0.188,110.25 -0.313,160.907c-0.062,21.593 -0.093,111.437 -0.062,269.531c-0,3.094 -1.531,4.656 -4.625,4.656l-121.219,0c-0.437,0 -0.781,-0.375 -0.781,-0.812l4.75,-677.782c0.031,-1.031 0.531,-1.687 1.531,-1.937l155.281,-35.875l5.313,-0Z" style="fill-rule:nonzero;"/><path d="M2852.44,4.531c87.249,9.219 170.874,45.5 226.343,114.406c53.625,66.625 75.75,150.063 77.25,235.125c2.157,124.532 -51.968,239.25 -153.843,310.469c-53.469,37.344 -113.563,58.063 -180.282,62.157c-55.125,3.343 -107.562,-2.344 -157.343,-17.063c-91.157,-27 -155.657,-82.938 -193.501,-167.844c-29.312,-65.718 -38.406,-151 -30.312,-223.75c13.969,-125.25 89.281,-232.75 205.031,-284.843c64.532,-29.032 135.125,-36.219 206.657,-28.657Zm-263.063,354.875c-1,129.5 41.969,256.782 194.219,263.282c148.031,6.312 218.093,-121.469 219.093,-251.907c1.032,-129.5 -41.968,-256.781 -194.218,-263.281c-148,-6.281 -218.094,121.469 -219.094,251.906Z" style="fill-rule:nonzero;"/><path d="M3305.84,580.281c37.656,17.813 76,29.125 115.093,33.938c57.876,7.156 149.251,3.25 160.532,-71.032c6,-39.437 -11.375,-67.437 -44.469,-87.218c-34.219,-20.438 -65.719,-31.188 -117.875,-52.344c-31.031,-12.594 -58.5,-27.938 -82.344,-46.031c-47.812,-36.188 -71.125,-88 -72.125,-147.219c-1.125,-67.094 26.219,-120.625 82,-160.625c48.938,-35.094 112.907,-49.031 174.594,-48.125c75.187,1.094 152.125,16.063 219.281,50.219c0.782,0.375 1.063,1.343 0.625,2.094l-53.718,93.062c-0.532,0.906 -1.251,1.094 -2.157,0.625c-41.875,-21.437 -94.687,-33.906 -141.437,-36.438c-47.719,-2.562 -124.282,6.782 -132.563,67.438c-8.125,59.594 41.657,88.781 87.907,108.688c58.281,25.093 136.437,48 183.937,100.25c26.75,29.437 41.844,65.062 45.281,106.843c12.25,148.938 -93.687,225.25 -230.031,232.469c-87.469,4.656 -169.094,-12 -244.844,-49.906c-0.844,-0.407 -1.156,-1.438 -0.718,-2.25l50.75,-93.688c0.437,-0.812 1.437,-1.156 2.281,-0.75Z" style="fill-rule:nonzero;"/><path d="M11020.7,4.531c87.25,9.219 170.875,45.5 226.344,114.406c53.625,66.625 75.75,150.063 77.25,235.125c2.156,124.532 -51.969,239.25 -153.844,310.469c-53.469,37.375 -113.562,58.063 -180.281,62.157c-55.125,3.343 -107.563,-2.344 -157.344,-17.063c-91.156,-27 -155.656,-82.938 -193.5,-167.844c-29.312,-65.718 -38.406,-151 -30.312,-223.75c13.968,-125.25 89.281,-232.75 205.031,-284.843c64.531,-29.032 135.125,-36.219 206.656,-28.657Zm-263.094,354.813c-1.031,129.5 41.907,256.812 194.188,263.344c148.031,6.343 218.125,-121.407 219.187,-251.875c1.032,-129.5 -41.937,-256.813 -194.187,-263.344c-148.031,-6.344 -218.156,121.437 -219.188,251.875Z" style="fill-rule:nonzero;"/><path d="M4026.06,442.094c-0.656,-0 -0.968,0.312 -0.968,0.969l-1.907,271.906c-0.031,0.937 -0.499,1.406 -1.437,1.406l-137.188,0c-1.343,0 -1.999,-0.656 -1.968,-2l4.906,-699.594c0,-1.187 0.594,-1.812 1.781,-1.906c95.625,-6.344 181.719,-9.719 258.313,-10.094c105.781,-0.5 210,38.063 234.718,153.125c8.782,40.875 9.001,80.75 0.657,119.625c-26.782,124.906 -151.594,164.688 -264.157,166.375c-26.593,0.407 -57.531,0.469 -92.75,0.188Zm0.126,-108.438c17.718,0 42.031,0 72.937,-0.031c19.938,0 34.531,-0.812 43.781,-2.437c54.844,-9.532 94.782,-41.313 98.844,-100.032c3.781,-54.75 -23.5,-103.125 -79.156,-116.375c-10.219,-2.406 -19.094,-3.687 -26.657,-3.781c-26.499,-0.406 -62.156,0.594 -106.999,3c-1.344,0.094 -2.032,0.813 -2.063,2.156l-1.5,216.657c-0.031,0.468 0.344,0.843 0.813,0.843Z" style="fill-rule:nonzero;"/><path d="M2150.38,300.125l2.031,-286.188c0,-0.812 0.625,-1.437 1.438,-1.437l137.625,-0c0.781,-0 1.437,0.656 1.437,1.437l-4.937,701.001c-0,0.812 -0.625,1.437 -1.438,1.437l-137.812,0c-0.782,0 -1.438,-0.656 -1.438,-1.438l2.125,-301c0,-0.781 -0.656,-1.437 -1.437,-1.437l-276.907,0c-0.812,0 -1.437,0.625 -1.437,1.438l-2.125,301c-0,0.812 -0.625,1.437 -1.438,1.437l-137.593,0c-0.782,0 -1.438,-0.656 -1.438,-1.438l4.938,-701c-0,-0.812 0.625,-1.437 1.437,-1.437l137.75,-0c0.782,-0 1.438,0.656 1.438,1.437l-2.031,286.188c-0,0.781 0.656,1.438 1.437,1.438l276.938,-0c0.812,-0 1.437,-0.625 1.437,-1.438Z" style="fill-rule:nonzero;"/><path d="M4663.23,14.28l-4.897,701.421c-0.005,0.672 -0.555,1.215 -1.227,1.21l-138.122,-0.964c-0.672,-0.005 -1.215,-0.555 -1.21,-1.227l4.897,-701.421c0.005,-0.672 0.555,-1.215 1.227,-1.21l138.122,0.964c0.672,0.005 1.215,0.555 1.21,1.227Z"/><path d="M5106.53,121.875c-1.062,0 -1.593,0.531 -1.593,1.625l-4.063,591.375c0,0.813 -0.688,1.5 -1.5,1.5l-137.469,-0.031c-0.906,-0 -1.625,-0.75 -1.625,-1.657l4.032,-592c-0.001,-0.437 -0.344,-0.781 -0.782,-0.781l-180.968,-0.031c-1.001,0 -1.501,-0.5 -1.501,-1.5l0.001,-106.344c-0.001,-1 0.499,-1.531 1.531,-1.531l504.343,0.031c0.844,0 1.501,0.688 1.501,1.532l-0.063,105.562c0,1.25 -1,2.25 -2.25,2.25l-179.594,0Z" style="fill-rule:nonzero;"/><path d="M5707.31,529.875c-0.344,-1.031 -1.313,-1.75 -2.376,-1.75l-249.624,0c-0.626,0 -1.188,0.375 -1.407,0.969l-74.093,197.25c-0.313,0.906 -1.251,1.406 -2.157,1.187l-121.093,-27.75c-1.001,-0.219 -1.563,-1.281 -1.188,-2.25l269.688,-683.75c0.343,-0.875 0.968,-1.281 1.874,-1.281l134.907,-0c0.625,-0 1.187,0.375 1.375,0.969l250.562,682c0.375,1 -0.218,2.093 -1.281,2.343l-135.25,30.75c-1.063,0.25 -1.781,-0.156 -2.156,-1.187l-67.782,-197.5Zm-125.906,-387.219c-11.437,56.094 -25.312,106.563 -44.093,160.157c-11.532,32.875 -25.251,71.625 -41.094,116.25c-0.219,0.625 0.25,1.281 0.906,1.281l171.5,-0c0.719,-0 1.25,-0.719 1,-1.375c-19.438,-55.469 -35,-99.813 -46.719,-133.094c-14.625,-41.531 -27.218,-92.594 -37.812,-153.125c-0.313,-1.719 -0.719,-1.75 -1.219,-0.063c-0.906,3.063 -1.75,6.375 -2.469,9.969Z" style="fill-rule:nonzero;"/><path d="M6410.34,716.406l-387.282,0c-0.687,0 -1.249,-0.562 -1.249,-1.25l4.937,-701.469c0,-0.687 0.563,-1.25 1.25,-1.25l138.25,0c0.688,0 1.25,0.563 1.25,1.25l-4.156,590.532c-0,0.687 0.562,1.25 1.25,1.25l245.75,-0c0.687,-0 1.25,0.562 1.25,1.25l-0,108.437c-0,0.688 -0.563,1.25 -1.25,1.25Z" style="fill-rule:nonzero;"/><path d="M6974.6,14.218l-4.897,701.42c-0.005,0.673 -0.555,1.215 -1.227,1.211l-138.122,-0.965c-0.672,-0.004 -1.215,-0.554 -1.21,-1.227l4.897,-701.42c0.005,-0.673 0.555,-1.215 1.227,-1.211l138.122,0.965c0.672,0.004 1.215,0.554 1.21,1.227Z"/><path d="M7410.84,716.438l-137.875,-0c-0.75,-0 -1.375,-0.625 -1.375,-1.375l4.187,-591.844c0,-0.75 -0.625,-1.375 -1.375,-1.375l-180.625,-0c-0.75,-0 -1.375,-0.625 -1.375,-1.375l0,-106.625c0,-0.75 0.625,-1.375 1.375,-1.375l504.688,-0c0.75,-0 1.375,0.625 1.375,1.375l-0,106.625c-0,0.75 -0.625,1.375 -1.375,1.375l-180.688,-0c-0.75,-0 -1.375,0.625 -1.375,1.375l-4.187,591.844c-0,0.75 -0.625,1.375 -1.375,1.375Z" style="fill-rule:nonzero;"/><path d="M8018.72,529.813c-0.375,-1.032 -1.313,-1.719 -2.375,-1.719l-249.625,-0c-0.625,-0 -1.188,0.375 -1.407,0.969l-74.062,197.25c-0.344,0.906 -1.25,1.406 -2.156,1.187l-121.094,-27.75c-1,-0.219 -1.562,-1.313 -1.188,-2.25l269.626,-683.719c0.343,-0.843 0.968,-1.281 1.875,-1.281l134.906,0c0.625,0 1.187,0.375 1.375,0.969l250.562,681.937c0.375,1 -0.219,2.094 -1.281,2.344l-135.219,30.75c-1.093,0.25 -1.812,-0.125 -2.156,-1.188l-67.781,-197.5Zm-125.907,-386.812c-11.406,56 -25.249,106.406 -44.031,159.906c-11.5,32.844 -25.187,71.531 -41.031,116.094c-0.219,0.625 0.25,1.281 0.906,1.281l171.282,0c0.718,0 1.218,-0.687 0.999,-1.375c-19.437,-55.375 -34.968,-99.687 -46.656,-132.906c-14.625,-41.469 -27.218,-92.438 -37.781,-152.906c-0.312,-1.719 -0.719,-1.75 -1.219,-0.063c-0.906,3.063 -1.718,6.375 -2.469,9.969Z" style="fill-rule:nonzero;"/><path d="M8477.03,605.438l245,0.062c0.438,0 0.75,0.344 0.75,0.75l-0.031,109.406c0,0.375 -0.344,0.719 -0.75,0.719l-388.094,-0.063c-0.437,0 -0.781,-0.343 -0.781,-0.75l5.156,-702.281c0,-0.406 0.344,-0.718 0.75,-0.718l138.188,0.031c0.937,-0 1.718,0.75 1.718,1.719l-4.25,588.781c0,1.562 0.782,2.343 2.344,2.343Z" style="fill-rule:nonzero;"/><path d="M9002.42,14.187l-4.898,701.483c-0.004,0.655 -0.54,1.183 -1.195,1.179l-138.185,-0.965c-0.655,-0.005 -1.183,-0.54 -1.179,-1.196l4.898,-701.483c0.004,-0.655 0.54,-1.183 1.195,-1.179l138.185,0.965c0.655,0.005 1.183,0.54 1.179,1.196Z"/><path d="M9292.84,529.188l-74.094,197.375c-0.281,0.781 -1.094,1.218 -1.875,1.031l-121.375,-27.813c-0.969,-0.25 -1.5,-1.281 -1.156,-2.187l269.781,-684.031c0.25,-0.625 0.844,-1.032 1.5,-1.032l135.062,0c0.688,0 1.282,0.438 1.532,1.063l250.437,681.594c0.313,0.906 -0.219,1.906 -1.156,2.125l-135.313,31.656c-0.812,0.187 -1.656,-0.25 -1.906,-1.031l-68.218,-198.719c-0.219,-0.656 -0.844,-1.094 -1.532,-1.094l-250.156,0c-0.687,0 -1.281,0.406 -1.531,1.063Zm127.562,-386.188c-11.437,56.031 -25.312,106.406 -44.062,159.906c-11.531,32.813 -25.219,71.5 -41.063,116.063c-0.218,0.625 0.25,1.281 0.907,1.281l171.218,0.031c0.75,0 1.25,-0.687 1,-1.375c-19.375,-55.375 -34.906,-99.656 -46.593,-132.875c-14.594,-41.5 -27.157,-92.468 -37.719,-152.906c-0.313,-1.719 -0.719,-1.75 -1.219,-0.062c-0.906,3.062 -1.75,6.375 -2.469,9.937Z" style="fill-rule:nonzero;"/><path d="M2031.69,1406.66c-41.094,46.407 -91.844,68.282 -152.251,65.688c-92.718,-3.969 -139.468,-69.875 -149.656,-155.907c-2.437,-20.593 -3.406,-38.468 -2.906,-53.656c1.969,-59.937 21.094,-119.125 60.906,-163.312c42.469,-47.125 98.188,-66.063 167.219,-56.782c28.875,3.875 54.562,15.157 77.062,33.844c0.813,0.656 1.282,0.469 1.407,-0.562c0.875,-7.094 -0.5,-19.782 -0.563,-25.719c-0.218,-16.031 -0.25,-53.094 -0.156,-111.188c0,-2.031 0.625,-33.687 1.875,-95c0.031,-1.25 0.656,-1.875 1.906,-1.875l49.219,0c0.625,0 0.938,0.313 0.938,0.907l-4.344,616.531c-0.032,2.031 -1.657,3.656 -3.657,3.656l-47.374,0c-0.375,0 -0.688,-0.312 -0.688,-0.687l2.063,-55.532c0.031,-1.093 -0.282,-1.25 -1,-0.406Zm-3.157,-277.625c-17.031,-20.656 -41.062,-35.844 -66.968,-41.812c-39.282,-9.032 -78.719,-5 -110.344,19.562c-48.313,37.5 -68.344,105.844 -66.813,165.25c1.657,65.531 21.438,144.094 96.625,157.313c57.219,10.093 109.532,-24.094 140.5,-71.125c4.625,-7.032 7.282,-12.407 7.969,-16.125c0.563,-3 0.875,-9.75 0.906,-20.219c0.282,-51 0.594,-112.594 1,-184.75c0.032,-2.938 -1,-5.813 -2.875,-8.094Z" style="fill-rule:nonzero;"/><path d="M3096.59,1163.69c-1.688,0.531 -1.657,0.999 0.062,1.343c9.125,1.906 17.125,4.094 24.032,6.563c61.906,22.281 86.374,78.75 84.562,141.593c-3,105.063 -93.375,150.438 -186.469,154.032c-26.718,1.031 -76.156,-0.375 -148.343,-4.188c-0.969,-0.031 -1.469,-0.531 -1.438,-1.5l5.844,-571.719c0.031,-1.781 0.906,-2.718 2.687,-2.812c46.032,-2.188 91.313,-3.563 135.875,-4.094c100.563,-1.219 187.125,23.75 185.219,145.375c-1.063,66.782 -37.188,115.125 -102.031,135.407Zm-170.063,-19.813c-0.031,0.906 0.438,1.375 1.344,1.375c33.844,0.156 60.75,0.125 80.75,-0.156c53.5,-0.781 110.094,-18.969 128.188,-73.688c7.343,-22.187 7.093,-53.25 0.343,-76.687c-15.625,-54.094 -67.125,-66.625 -117.468,-67.281c-30.094,-0.375 -60.157,0.093 -90.188,1.437c-0.813,0.031 -1.469,0.719 -1.469,1.563l-1.5,213.437Zm0.594,45.281c-0.875,0.032 -1.563,0.719 -1.563,1.563l-1.593,228.812c-0.032,1.282 0.593,1.938 1.875,2.032c26.562,1.718 54.156,2.25 82.75,1.625c71.937,-1.594 137.781,-32.594 139.093,-114.344c0.907,-55.75 -20.281,-98.406 -78.062,-112.125c-16.969,-4.031 -33.281,-6.344 -49,-6.875c-25.031,-0.844 -56.219,-1.063 -93.5,-0.688Z" style="fill-rule:nonzero;"/><path d="M5634.41,1470.66l-47.968,-15.062c-0.907,-0.282 -1.376,-1.282 -1.001,-2.157l233.126,-564.937c0.249,-0.594 0.843,-1 1.499,-1l51.313,-0c0.656,-0 1.25,0.406 1.5,1.031l220.406,563.563c0.344,0.875 -0.093,1.843 -0.968,2.156l-49.532,17c-0.843,0.281 -1.75,-0.156 -2.062,-0.969l-82.657,-217.656c-0.249,-0.656 -0.843,-1.063 -1.531,-1.063l-233,0.001c-0.656,-0 -1.25,0.406 -1.5,1.031l-85.625,217.125c-0.312,0.781 -1.187,1.219 -2,0.937Zm207.094,-521.25c-2.656,3.219 -8,15.75 -15.969,37.657c-9.031,24.843 -13.718,37.656 -14.031,38.437c-20.594,51.438 -44.375,111.375 -71.406,179.813c-0.344,0.812 0.281,1.687 1.156,1.687l197.094,0c0.906,0 1.531,-0.906 1.218,-1.75l-97.124,-255.687c-0.219,-0.594 -0.532,-0.625 -0.938,-0.157Z" style="fill-rule:nonzero;"/><path d="M6241.41,904.344l0,62.437c0,0.673 -0.546,1.219 -1.218,1.219l-62.438,-0c-0.673,-0 -1.219,-0.546 -1.219,-1.219l0,-62.437c0,-0.673 0.546,-1.219 1.219,-1.219l62.438,0c0.672,0 1.218,0.546 1.218,1.219Z"/><path d="M2244.47,1248.03c-4.5,61.813 5.875,148.375 75.156,172.469c60.313,20.969 118.031,-1.406 159.188,-47.406c0.656,-0.75 1.812,-0.782 2.499,-0.094l29.657,29.688c0.5,0.499 0.5,1.281 0.031,1.749c-51.781,55.313 -115.656,76.938 -191.625,64.875c-106.688,-16.968 -133.031,-113.312 -132.344,-205.812c0.469,-63.406 20.844,-125.719 64.407,-171.125c41.249,-42.969 93.999,-59.188 158.249,-48.688c98.626,16.188 121.251,117.782 117.751,201.719c-0.032,1 -0.563,1.5 -1.563,1.5l-280.094,-0.093c-0.687,-0 -1.281,0.531 -1.312,1.218Zm225.187,-43.343c0.688,-0 1.219,-0.532 1.219,-1.219c0.188,-70.094 -40.719,-136 -120.719,-118.844c-54.843,11.75 -88.593,67.25 -99.156,119.188c-0.094,0.437 0.25,0.875 0.719,0.875l217.937,-0Z" style="fill-rule:nonzero;"/><path d="M3810.56,1248.09c-4.469,61.812 5.937,148.375 75.249,172.468c60.313,20.938 118.032,-1.468 159.188,-47.468c0.656,-0.75 1.813,-0.782 2.5,-0.094l29.688,29.688c0.468,0.499 0.499,1.249 0.031,1.749c-51.781,55.344 -115.688,76.969 -191.656,64.938c-106.688,-16.938 -133.094,-113.281 -132.438,-205.813c0.469,-63.406 20.813,-125.718 64.375,-171.156c41.219,-43 93.969,-59.25 158.25,-48.75c98.656,16.156 121.313,117.75 117.844,201.719c-0.032,1 -0.563,1.5 -1.563,1.5l-280.156,-0c-0.688,-0 -1.25,0.531 -1.312,1.219Zm225.187,-43.375c0.688,-0 1.219,-0.532 1.219,-1.219c0.219,-70.094 -40.657,-136 -120.657,-118.875c-54.843,11.75 -88.625,67.219 -99.187,119.156c-0.125,0.438 0.25,0.875 0.688,0.875l217.937,0.063Z" style="fill-rule:nonzero;"/><path d="M4245.84,1119.94c14.093,-14.469 23.218,-23.532 27.375,-27.188c42.468,-37.438 83.593,-56.406 139.375,-51.438c39.875,3.532 74.875,19.032 92.906,56.282c8.344,17.219 12.438,36.125 12.25,56.719c-1.094,127.843 -2.219,230.312 -3.406,307.375c-0.032,1.281 -0.688,1.906 -1.969,1.906l-50.438,-0.344c-0.374,0 -0.687,-0.312 -0.687,-0.687c0.875,-102.782 1.75,-201.75 2.625,-296.844c0.531,-54.844 -35.125,-86.25 -89.563,-80.438c-51.812,5.563 -98.593,46.188 -127.593,88.157c-2.375,3.406 -1.594,6.281 -1.625,10.218c-0.438,82.844 -1.125,175.5 -2.094,277.907c-0.031,1.156 -0.594,1.718 -1.719,1.718l-49.75,0c-0.937,0 -1.406,-0.468 -1.375,-1.406l2.875,-410.594c0,-1.25 0.688,-1.875 2.032,-1.875l48.624,0c1.188,0 1.782,0.594 1.782,1.813l-0.5,68.375c-0,0.844 0.281,0.937 0.875,0.344Z" style="fill-rule:nonzero;"/><path d="M5002.41,1256.25c0.094,128.125 -94.968,231.281 -228.593,214.281c-114.032,-14.5 -157.469,-110.875 -157.532,-214.343c-0.093,-128.125 94.938,-231.282 228.563,-214.282c114.062,14.5 157.468,110.875 157.562,214.344Zm-327.031,-21.938c-5.25,70.563 12.813,172.782 96.719,192.313c27.281,6.344 55.531,4.281 81.687,-7.125c89.282,-39 104.782,-152.813 80.844,-236.719c-16.75,-58.718 -58.156,-99.343 -122.031,-99.031c-87.469,0.406 -131.407,71.75 -137.219,150.563Z" style="fill-rule:nonzero;"/><path d="M5324.56,1069.91c1.124,0.625 1.343,1.5 0.624,2.625l-22.968,34.782c-0.344,0.531 -1.063,0.687 -1.625,0.406c-44.375,-23.594 -88.5,-34.906 -133.844,-12.625c-22.5,11.062 -34.344,28.781 -35.469,53.187c-1.687,37.157 32.282,58.25 61.688,71.563c33.468,15.156 71.062,29.562 99.812,56.5c34.469,32.344 38.063,87.781 17.063,128.187c-24.5,47.125 -79.782,69.75 -132.188,67.938c-40.656,-1.407 -77.281,-9.219 -111.812,-30.563c-1.063,-0.625 -1.375,-2.031 -0.688,-3.062l22.907,-34.782c0.593,-0.843 1.312,-1 2.187,-0.468c33.75,21.125 69.219,29.093 106.438,23.937c37.281,-5.125 66.937,-32.343 65.906,-70.875c-0.938,-35.187 -26.532,-56.343 -55.75,-70.187c-48.063,-22.75 -112.438,-42.688 -128.469,-99.344c-21.969,-77.75 32.125,-132.188 104.813,-143.969c49.906,-8.093 97.031,0.813 141.374,26.75Z" style="fill-rule:nonzero;"/><path d="M6412.34,1128.41c17.437,-26.906 37.312,-55.906 65.875,-72.187c30.062,-17.157 63.062,-20.282 99,-9.344c0.812,0.25 1.218,1.094 0.937,1.906l-17.937,47.75c-0.344,0.875 -1.313,1.344 -2.219,1.063c-27.969,-8.719 -53.969,-4.657 -77.969,12.187c-25,17.532 -45.875,40.875 -62.656,70.032c-2.156,3.718 -3.219,8.125 -3.25,13.187c-0.5,71.688 -1.344,161.5 -2.5,269.438c-0.031,0.468 -0.375,0.812 -0.844,0.812l-50.406,0c-0.688,0 -1.25,-0.562 -1.25,-1.281l2.906,-410.969c0,-1.187 0.594,-1.781 1.782,-1.781l48.718,-0c1.5,-0 2.219,0.75 2.156,2.25l-2.843,76.781c-0.031,0.656 0.125,0.719 0.5,0.156Z" style="fill-rule:nonzero;"/><path d="M6657.22,1248.03c-4.5,61.813 5.875,148.375 75.156,172.5c60.313,20.969 118.031,-1.406 159.219,-47.406c0.656,-0.75 1.781,-0.781 2.5,-0.094l29.656,29.719c0.469,0.469 0.5,1.25 0.031,1.75c-51.812,55.281 -115.718,76.906 -191.687,64.844c-106.657,-17 -133,-113.344 -132.313,-205.875c0.5,-63.407 20.875,-125.688 64.438,-171.125c41.25,-42.969 94.031,-59.188 158.281,-48.657c98.625,16.219 121.25,117.813 117.719,201.75c-0.032,1 -0.563,1.5 -1.563,1.5l-280.125,-0.125c-0.687,0 -1.25,0.532 -1.312,1.219Zm225.187,-43.344c0.657,0 1.219,-0.531 1.219,-1.218c0.188,-70.094 -40.75,-136.032 -120.781,-118.844c-54.844,11.75 -88.594,67.281 -99.157,119.219c-0.093,0.468 0.251,0.875 0.719,0.875l218,-0.032Z" style="fill-rule:nonzero;"/><path d="M7262.59,1069.91c1.125,0.657 1.343,1.532 0.625,2.625l-22.969,34.782c-0.344,0.531 -1.063,0.718 -1.625,0.406c-44.375,-23.594 -88.5,-34.906 -133.844,-12.625c-22.531,11.062 -34.343,28.781 -35.469,53.187c-1.687,37.157 32.282,58.25 61.688,71.563c33.469,15.156 71.063,29.562 99.813,56.5c34.468,32.344 38.062,87.812 17.062,128.219c-24.5,47.125 -79.781,69.75 -132.188,67.937c-40.656,-1.406 -77.281,-9.219 -111.843,-30.562c-1.032,-0.657 -1.344,-2.032 -0.688,-3.063l22.938,-34.781c0.593,-0.844 1.312,-1 2.187,-0.469c33.719,21.094 69.219,29.094 106.438,23.938c37.281,-5.125 66.937,-32.344 65.906,-70.875c-0.938,-35.219 -26.531,-56.375 -55.75,-70.219c-48.063,-22.75 -112.438,-42.688 -128.469,-99.344c-21.969,-77.75 32.125,-132.187 104.813,-143.969c49.906,-8.093 97.031,0.813 141.375,26.75Z" style="fill-rule:nonzero;"/><path d="M3597.44,1393.25c-0.001,-0.844 -0.282,-0.969 -0.875,-0.344c-14.094,14.469 -23.219,23.563 -27.375,27.219c-42.469,37.531 -83.594,56.563 -139.438,51.656c-39.906,-3.5 -74.938,-18.968 -93.031,-56.25c-8.375,-17.218 -12.5,-36.156 -12.344,-56.75c0.969,-127.968 1.969,-230.5 3.094,-307.625c-0,-1.281 0.656,-1.906 1.968,-1.906l50.469,0.281c0.375,0 0.688,0.313 0.688,0.688c-0.75,102.875 -1.532,201.906 -2.313,297.093c-0.468,54.875 35.25,86.282 89.75,80.407c51.844,-5.625 98.625,-46.344 127.594,-88.375c2.375,-3.407 1.594,-6.282 1.625,-10.219c0.344,-82.938 0.938,-175.656 1.781,-278.156c0.032,-1.125 0.594,-1.719 1.719,-1.719l49.781,-0.063c0.969,0.001 1.406,0.469 1.406,1.407l-2.437,410.969c-0,1.25 -0.688,1.875 -2.031,1.875l-48.688,0.031c-1.187,-0 -1.781,-0.594 -1.781,-1.813l0.438,-68.406Z" style="fill-rule:nonzero;"/><path d="M6234.47,1050.54l-4.314,411.915c-0.006,0.587 -0.487,1.058 -1.073,1.052l-51.56,-0.54c-0.586,-0.006 -1.058,-0.488 -1.051,-1.074l4.313,-411.915c0.006,-0.586 0.488,-1.057 1.074,-1.051l51.56,0.54c0.586,0.006 1.057,0.487 1.051,1.073Z"/></g></g></svg>