<svg xmlns="http://www.w3.org/2000/svg" viewBox="0 -0.02 45.83 57.27">
  <g fill="#006fb7">
    <path d="M45.708 24.418a18.36 18.36 0 0 0 0 25.923c.372.372.76.727 1.147 1.051l.048.048a18.34 18.34 0 0 0 14.319 4.089l.388-.048a18.2 18.2 0 0 0 8.937-4.121l.016-.016c.372-.307.727-.646 1.067-.986a18.38 18.38 0 0 0 2.327-23.079L71.841 29.4 62 39.238a10.56 10.56 0 0 0-3.345 6.335 6.89 6.89 0 0 0 3.669 6.756c-.469.113-.937.21-1.406.275a6.88 6.88 0 0 1-6.691-3.879c-.808-1.584-2.133-5.818 2.893-10.828l6.141-6.141 7.853-7.856a18 18 0 0 0-2.327-1.826l-7.612 7.612-6.141 6.141c-4.428 4.428-5.705 9.746-3.426 14.238a10 10 0 0 0 .873 1.406 15.7 15.7 0 0 1-3.717-2.311 7.26 7.26 0 0 1-2.683-5.35c-.129-3.152 1.632-6.885 4.735-9.988l7.257-7.24 4.17-4.17 2.36-2.36a18.3 18.3 0 0 0-18.895 4.366M62.58 48.9c-1.406-1.535-1.762-4.331 1.487-7.58l9.1-9.1a15.4 15.4 0 0 1-3.62 16.065c-.291.291-.6.566-.905.84a4.373 4.373 0 0 1-6.062-.225m-19.022-8.579a15.385 15.385 0 0 1 14.95-18.327l-9.778 9.777a19.2 19.2 0 0 0-5.172 8.55" data-name="Pfad 86" style="--darkreader-inline-fill:var(--darkreader-background-006fb7, #005992)" transform="translate(-35.704 -19.062)"/>
    <path d="m11.6 305.91.275-.323a1.83 1.83 0 0 0 1.341.55c.517 0 .873-.275.873-.663v-.016c0-.356-.194-.566-1.018-.743-.905-.194-1.309-.485-1.309-1.131v-.016a1.147 1.147 0 0 1 1.277-1.067 2.04 2.04 0 0 1 1.374.485l-.259.339a1.73 1.73 0 0 0-1.131-.42c-.5 0-.824.275-.824.63v.016c0 .372.194.582 1.067.76.873.194 1.277.5 1.277 1.1v.016c0 .663-.549 1.1-1.325 1.1a2.34 2.34 0 0 1-1.618-.617" data-name="Pfad 87" style="--darkreader-inline-fill:var(--darkreader-text-006fb7, #4cb9ff)" transform="translate(-11.6 -256.692)"/>
    <path d="M32.6 302.816h.485l1.115 3.249 1.067-3.265h.356l1.083 3.265 1.115-3.249h.469l-1.39 3.927h-.372l-1.067-3.168-1.083 3.168h-.372Z" data-name="Pfad 88" style="--darkreader-inline-fill:var(--darkreader-text-006fb7, #4cb9ff)" transform="translate(-29.206 -256.943)"/>
    <path d="M72.4 302.9h.436v3.9H72.4Z" data-name="Pfad 89" style="--darkreader-inline-fill:var(--darkreader-text-006fb7, #4cb9ff)" transform="translate(-62.574 -257.027)"/>
    <path d="m80.4 305.91.275-.323a1.83 1.83 0 0 0 1.341.55c.517 0 .873-.275.873-.663v-.016c0-.356-.194-.566-1.018-.743-.905-.194-1.309-.485-1.309-1.131v-.016a1.147 1.147 0 0 1 1.277-1.067 2.04 2.04 0 0 1 1.374.485l-.259.339a1.73 1.73 0 0 0-1.131-.42c-.5 0-.824.275-.824.63v.016c0 .372.194.582 1.067.76.873.194 1.277.5 1.277 1.1v.016c0 .663-.549 1.1-1.325 1.1a2.34 2.34 0 0 1-1.618-.617" data-name="Pfad 90" style="--darkreader-inline-fill:var(--darkreader-text-006fb7, #4cb9ff)" transform="translate(-69.281 -256.692)"/>
    <path d="m102.6 305.91.275-.323a1.83 1.83 0 0 0 1.341.55c.517 0 .873-.275.873-.663v-.016c0-.356-.194-.566-1.018-.743-.905-.194-1.309-.485-1.309-1.131v-.016a1.147 1.147 0 0 1 1.277-1.067 2.04 2.04 0 0 1 1.374.485l-.259.339a1.73 1.73 0 0 0-1.131-.42c-.5 0-.824.275-.824.63v.016c0 .372.194.582 1.067.76.873.194 1.277.5 1.277 1.1v.016c0 .663-.549 1.1-1.325 1.1a2.34 2.34 0 0 1-1.618-.617" data-name="Pfad 91" style="--darkreader-inline-fill:var(--darkreader-text-006fb7, #4cb9ff)" transform="translate(-87.893 -256.692)"/>
    <path d="M137.3 302.9h.453l1.422 2.133 1.425-2.133h.453v3.9h-.436v-3.168l-1.422 2.085h-.016l-1.422-2.085v3.151h-.436V302.9Z" data-name="Pfad 92" style="--darkreader-inline-fill:var(--darkreader-text-006fb7, #4cb9ff)" transform="translate(-116.985 -257.027)"/>
    <path d="M167.6 302.9h2.812v.4h-2.376v1.325h2.133v.4h-2.133v1.358h2.408v.4H167.6Z" data-name="Pfad 93" style="--darkreader-inline-fill:var(--darkreader-text-006fb7, #4cb9ff)" transform="translate(-142.388 -257.027)"/>
    <path d="M191 302.9h1.358a1.94 1.94 0 0 1 2.069 1.939v.016a1.95 1.95 0 0 1-2.069 1.956H191Zm.436.4v3.087h.921a1.507 1.507 0 0 0 1.616-1.535 1.53 1.53 0 0 0-1.616-1.552Z" data-name="Pfad 94" style="--darkreader-inline-fill:var(--darkreader-text-006fb7, #4cb9ff)" transform="translate(-162.006 -257.027)"/>
    <path d="M217.6 302.9h.436v3.9h-.436Z" data-name="Pfad 95" style="--darkreader-inline-fill:var(--darkreader-text-006fb7, #4cb9ff)" transform="translate(-184.307 -257.027)"/>
    <path d="M225.5 304.536a1.974 1.974 0 0 1 1.972-2.036 2.06 2.06 0 0 1 1.519.614l-.307.323a1.7 1.7 0 0 0-1.228-.533 1.524 1.524 0 0 0-1.5 1.6v.016a1.54 1.54 0 0 0 1.5 1.616 1.7 1.7 0 0 0 1.261-.566l.291.291a2 2 0 0 1-1.568.679 1.94 1.94 0 0 1-1.94-2.004" data-name="Pfad 96" style="--darkreader-inline-fill:var(--darkreader-text-006fb7, #4cb9ff)" transform="translate(-190.93 -256.692)"/>
    <path d="M251.762 302.8h.42l1.778 3.927h-.469l-.452-1.034h-2.117l-.469 1.034H250Zm1.083 2.489-.889-1.988-.889 1.988Z" data-name="Pfad 97" style="--darkreader-inline-fill:var(--darkreader-text-006fb7, #4cb9ff)" transform="translate(-211.47 -256.943)"/>
    <path d="M278.7 302.9h.436v3.491h2.2v.4H278.7Z" data-name="Pfad 98" style="--darkreader-inline-fill:var(--darkreader-text-006fb7, #4cb9ff)" transform="translate(-235.532 -257.027)"/>
    <path d="M61 348.8h.42l2.457 3.119V348.8h.436v3.911h-.356l-2.521-3.2v3.2H61Z" data-name="Pfad 99" style="--darkreader-inline-fill:var(--darkreader-text-006fb7, #4cb9ff)" transform="translate(-53.016 -295.509)"/>
    <path d="M88.4 348.8h2.828v.4h-2.375v1.325h2.133v.4h-2.133v1.358h2.408v.4H88.4Z" data-name="Pfad 100" style="--darkreader-inline-fill:var(--darkreader-text-006fb7, #4cb9ff)" transform="translate(-75.988 -295.509)"/>
    <path d="M111.309 349.2H110v-.4h3.071v.4h-1.309v3.507h-.436V349.2Z" data-name="Pfad 101" style="--darkreader-inline-fill:var(--darkreader-text-006fb7, #4cb9ff)" transform="translate(-94.097 -295.509)"/>
    <path d="M132.3 348.716h.485l1.115 3.248 1.067-3.265h.356l1.067 3.265 1.115-3.248h.469l-1.39 3.927h-.372l-1.067-3.168-1.083 3.168h-.372Z" data-name="Pfad 102" style="--darkreader-inline-fill:var(--darkreader-text-006fb7, #4cb9ff)" transform="translate(-112.793 -295.425)"/>
    <path d="M169.9 350.436a1.988 1.988 0 1 1 3.976-.032v.016a1.988 1.988 0 1 1-3.976.016m3.523 0a1.544 1.544 0 0 0-1.535-1.616 1.527 1.527 0 0 0-1.519 1.6v.016a1.53 1.53 0 1 0 3.055 0Z" data-name="Pfad 103" style="--darkreader-inline-fill:var(--darkreader-text-006fb7, #4cb9ff)" transform="translate(-144.316 -295.173)"/>
    <path d="M200.2 348.8h1.681a1.58 1.58 0 0 1 1.115.388 1.1 1.1 0 0 1 .307.776v.016a1.144 1.144 0 0 1-1.067 1.131l1.2 1.6h-.536l-1.131-1.519h-1.115v1.519h-.436V348.8Zm1.648 1.988c.582 0 1-.307 1-.808v-.016c0-.485-.372-.776-1-.776h-1.2v1.584h1.2Z" data-name="Pfad 104" style="--darkreader-inline-fill:var(--darkreader-text-006fb7, #4cb9ff)" transform="translate(-169.719 -295.509)"/>
    <path d="M226.3 348.8h.436v2.327l2.246-2.327h.582l-1.681 1.713 1.745 2.2h-.55l-1.5-1.891-.824.84v1.051h-.436V348.8Z" data-name="Pfad 105" style="--darkreader-inline-fill:var(--darkreader-text-006fb7, #4cb9ff)" transform="translate(-191.601 -295.509)"/>
  </g>
</svg>
